<?xml version="1.0" standalone="no"?>
<!DOCTYPE svg PUBLIC "-//W3C//DTD SVG 20010904//EN"
 "http://www.w3.org/TR/2001/REC-SVG-20010904/DTD/svg10.dtd">
<svg version="1.0" xmlns="http://www.w3.org/2000/svg"
 width="512.000000pt" height="512.000000pt" viewBox="0 0 512.000000 512.000000"
 preserveAspectRatio="xMidYMid meet">
<metadata>
Created by potrace 1.14, written by Peter Selinger 2001-2017
</metadata>
<g transform="translate(0.000000,512.000000) scale(0.100000,-0.100000)"
fill="#000000" stroke="none">
<path d="M2455 4794 c-148 -22 -277 -67 -399 -138 -77 -45 -235 -194 -285
-269 -57 -84 -110 -200 -138 -303 -23 -85 -27 -118 -27 -239 -1 -212 43 -364
153 -532 133 -202 346 -350 587 -410 110 -27 345 -24 454 6 104 28 209 75 299
136 94 62 236 213 290 309 99 174 145 391 124 576 -12 107 -30 134 -88 134
-65 0 -70 -14 -70 -197 -1 -188 -12 -242 -80 -382 -100 -207 -300 -366 -527
-420 -105 -25 -108 -24 -108 38 l1 52 112 75 c78 53 115 84 121 103 9 25 -13
114 -60 242 -2 6 66 97 151 204 160 200 172 222 141 266 -8 11 -77 51 -153 89
-150 74 -172 78 -213 34 -22 -24 -26 -59 -10 -89 6 -10 48 -38 93 -60 45 -23
84 -43 85 -44 2 -2 -50 -70 -115 -152 -148 -184 -153 -192 -153 -223 0 -15 14
-66 30 -115 l30 -90 -22 -17 c-13 -9 -37 -25 -54 -34 -31 -17 -34 -17 -85 5
-30 13 -87 43 -126 68 l-73 44 30 59 c17 33 30 71 30 84 0 16 -38 76 -106 167
l-106 141 106 108 c106 107 118 128 100 174 -3 8 -73 74 -155 146 -82 72 -149
134 -149 138 0 21 197 120 210 105 4 -4 29 -73 55 -152 30 -90 57 -154 71
-168 26 -26 70 -30 100 -9 11 8 71 91 133 184 l113 170 54 -18 c150 -52 283
-153 393 -299 58 -77 77 -89 127 -77 30 8 58 59 48 89 -9 30 -73 122 -125 181
-111 126 -308 243 -479 286 -82 20 -270 34 -335 24z m135 -160 c0 -7 -80 -124
-84 -124 -2 0 -13 27 -24 59 -15 43 -17 61 -9 65 17 6 117 7 117 0z m-539
-345 c46 -40 99 -86 116 -102 l33 -31 -100 -101 c-83 -85 -100 -107 -100 -133
0 -24 25 -64 110 -176 61 -80 110 -150 110 -156 0 -6 -27 -63 -59 -128 l-59
-117 -53 -19 c-30 -10 -59 -21 -66 -23 -17 -7 -100 110 -144 203 -55 115 -72
197 -72 334 0 134 17 217 67 326 35 74 112 194 126 194 4 0 45 -32 91 -71z"/>
<path d="M524 3668 c-38 -18 -44 -51 -44 -223 l0 -165 -40 0 -40 0 0 -1199 0
-1200 828 -4 c722 -4 838 -6 912 -21 113 -22 237 -60 337 -103 l83 -35 83 35
c154 66 297 102 470 117 56 5 405 9 775 10 l672 0 0 40 c0 32 4 40 18 40 10 0
28 10 40 23 l22 23 0 1302 c0 932 -3 1308 -11 1325 -6 14 -22 30 -36 36 -16 7
-161 11 -459 11 l-435 0 -24 -25 c-35 -34 -34 -86 1 -114 26 -20 37 -21 415
-21 l389 0 0 -1199 0 -1200 -722 -4 c-692 -3 -727 -5 -818 -25 -97 -21 -203
-51 -253 -71 -16 -6 -33 -11 -38 -11 -5 0 -9 322 -9 830 l0 831 -25 24 c-15
16 -36 25 -55 25 -19 0 -40 -9 -55 -25 l-25 -24 0 -831 c0 -456 -3 -830 -7
-830 -5 0 -31 9 -59 19 -28 11 -89 29 -135 41 -178 46 -253 50 -966 50 l-673
0 0 295 0 296 -25 24 c-13 14 -31 25 -40 25 -12 0 -15 15 -15 80 0 65 3 80 15
80 9 0 27 11 40 25 l25 24 0 776 0 775 389 0 c378 0 389 1 415 21 35 28 36 80
1 114 l-24 25 -438 -1 c-280 0 -446 -4 -459 -11z"/>
<path d="M204 3348 c-12 -5 -27 -21 -33 -34 -16 -36 -16 -2593 0 -2628 7 -14
19 -29 28 -33 9 -4 430 -10 936 -13 l920 -5 70 -24 c127 -42 203 -89 300 -184
50 -49 98 -93 108 -99 33 -17 62 0 153 90 98 98 179 149 302 191 l77 26 920 5
c506 3 927 9 936 13 9 4 21 19 28 33 16 36 16 2592 0 2628 -26 55 -112 55
-138 0 -8 -18 -11 -366 -11 -1269 l0 -1244 -882 -3 -883 -3 -73 -23 c-133 -41
-268 -117 -354 -201 l-48 -45 -47 45 c-87 84 -222 160 -355 201 l-73 23 -882
3 -883 3 0 1244 c0 890 -3 1251 -11 1268 -11 24 -48 48 -72 46 -7 0 -22 -5
-33 -11z"/>
<path d="M1487 3268 c-23 -8 -51 -58 -197 -349 -94 -186 -170 -350 -170 -364
0 -54 70 -92 121 -65 10 6 44 60 74 120 l55 110 150 0 150 0 55 -110 c56 -111
73 -130 120 -130 33 0 75 42 75 75 0 30 -320 673 -346 696 -27 23 -55 29 -87
17z m71 -323 l32 -65 -70 0 -70 0 32 65 c18 36 35 65 38 65 3 0 20 -29 38 -65z"/>
<path d="M3465 3015 c-16 -15 -25 -36 -25 -55 0 -19 9 -40 25 -55 23 -24 29
-25 155 -25 l132 0 -6 -40 c-3 -22 -9 -58 -12 -80 l-6 -40 -119 0 c-114 0
-121 -1 -144 -25 -16 -15 -25 -36 -25 -55 0 -19 9 -40 25 -55 23 -24 31 -25
135 -25 60 0 110 -3 110 -7 0 -5 -7 -55 -15 -113 -8 -58 -15 -108 -15 -112 0
-5 -43 -8 -95 -8 -88 0 -98 -2 -120 -25 -33 -32 -33 -78 0 -110 l24 -25 391 0
391 0 24 25 c33 32 33 78 0 110 -20 21 -34 25 -80 25 l-55 0 0 175 c0 173 0
176 -25 200 -23 24 -31 25 -135 25 l-112 0 6 40 c3 22 9 58 12 80 l6 40 179 0
c178 0 180 0 204 25 16 15 25 36 25 55 0 19 -9 40 -25 55 l-24 25 -391 0 -391
0 -24 -25z m535 -575 l0 -120 -80 0 c-44 0 -80 3 -80 8 0 4 7 54 15 112 8 58
15 108 15 113 0 4 29 7 65 7 l65 0 0 -120z"/>
<path d="M2905 2695 c-16 -16 -25 -35 -25 -57 0 -27 15 -47 103 -135 88 -88
108 -103 135 -103 44 0 82 38 82 82 0 27 -15 47 -103 135 -88 88 -108 103
-135 103 -22 0 -41 -9 -57 -25z"/>
<path d="M2825 2295 c-16 -15 -25 -36 -25 -55 0 -19 9 -40 25 -55 22 -23 32
-25 120 -25 l95 0 0 -295 0 -296 25 -24 c40 -41 67 -33 218 67 76 50 142 100
148 109 26 50 -13 119 -68 119 -17 0 -56 -18 -96 -45 l-67 -45 0 260 0 261
-25 24 c-23 24 -28 25 -175 25 -147 0 -152 -1 -175 -25z"/>
<path d="M905 2215 l-25 -24 0 -351 0 -351 25 -24 c23 -24 30 -25 137 -25 148
0 181 10 244 74 101 100 101 230 -1 331 -56 57 -102 75 -189 75 l-56 0 0 135
c0 131 -1 137 -25 160 -15 16 -36 25 -55 25 -19 0 -40 -9 -55 -25z m249 -466
c35 -16 52 -61 37 -98 -15 -35 -48 -51 -106 -51 l-45 0 0 80 0 80 45 0 c24 0
55 -5 69 -11z"/>
<path d="M3545 1975 l-25 -24 0 -271 0 -271 25 -24 c15 -16 36 -25 55 -25 51
0 80 38 80 105 l0 55 240 0 240 0 0 -55 c0 -46 4 -60 25 -80 32 -33 78 -33
110 0 l25 24 0 271 0 271 -25 24 -24 25 -351 0 -351 0 -24 -25z m615 -215 l0
-80 -240 0 -240 0 0 80 0 80 240 0 240 0 0 -80z"/>
<path d="M1840 1981 c-76 -24 -125 -71 -149 -140 -14 -43 -14 -204 0 -254 14
-52 71 -112 124 -133 88 -33 199 2 245 79 27 43 25 73 -5 102 -34 35 -76 33
-118 -5 -68 -59 -97 -33 -97 85 0 75 2 85 22 99 30 21 32 21 73 -16 47 -40 89
-42 122 -4 28 33 29 59 2 102 -38 63 -152 107 -219 85z"/>
</g>
</svg>
